<svg xmlns="http://www.w3.org/2000/svg" xmlns:xlink="http://www.w3.org/1999/xlink" width="2300" zoomAndPan="magnify" viewBox="0 0 1724.88 299.999988" height="400" preserveAspectRatio="xMidYMid meet" version="1.0"><defs><clipPath id="a0cf04fa35"><path d="M 0 0.0117188 L 1724.761719 0.0117188 L 1724.761719 299.988281 L 0 299.988281 Z M 0 0.0117188 " clip-rule="nonzero"/></clipPath><clipPath id="dc389c46d0"><path d="M 725.992188 275 L 972.726562 275 L 972.726562 280 L 725.992188 280 Z M 725.992188 275 " clip-rule="nonzero"/></clipPath><clipPath id="dac0443845"><path d="M 1178 74 L 1724.761719 74 L 1724.761719 227 L 1178 227 Z M 1178 74 " clip-rule="nonzero"/></clipPath><clipPath id="ddb7d31bf2"><path d="M 738 0.0117188 L 1339 0.0117188 L 1339 206 L 738 206 Z M 738 0.0117188 " clip-rule="nonzero"/></clipPath></defs><g clip-path="url(#a0cf04fa35)"><path fill="#ffffff" d="M 0 0.0117188 L 1724.878906 0.0117188 L 1724.878906 299.988281 L 0 299.988281 Z M 0 0.0117188 " fill-opacity="1" fill-rule="nonzero"/><path fill="#290529" d="M 0 0.0117188 L 1724.878906 0.0117188 L 1724.878906 299.988281 L 0 299.988281 Z M 0 0.0117188 " fill-opacity="1" fill-rule="nonzero"/></g><g clip-path="url(#dc389c46d0)"><path fill="#290529" d="M 971.859375 275.3125 C 939.910156 274.90625 907.957031 275.332031 876.015625 276.019531 C 844.074219 276.710938 812.148438 277.660156 780.210938 278.304688 C 762.289062 278.667969 744.367188 278.902344 726.441406 279.007812 C 726.3125 279.007812 726.203125 279.054688 726.113281 279.144531 C 726.019531 279.234375 725.976562 279.347656 725.976562 279.476562 C 725.976562 279.601562 726.019531 279.714844 726.113281 279.804688 C 726.203125 279.894531 726.3125 279.941406 726.441406 279.941406 C 758.382812 279.988281 790.320312 279.277344 822.246094 278.507812 C 854.171875 277.742188 886.117188 276.886719 918.0625 276.546875 C 935.992188 276.355469 953.929688 276.328125 971.859375 276.5625 C 972.03125 276.5625 972.179688 276.5 972.300781 276.378906 C 972.421875 276.257812 972.484375 276.109375 972.484375 275.9375 C 972.484375 275.765625 972.421875 275.617188 972.300781 275.496094 C 972.179688 275.375 972.03125 275.3125 971.859375 275.3125 Z M 971.859375 275.3125 " fill-opacity="1" fill-rule="nonzero"/></g><path stroke-linecap="butt" transform="matrix(0.747485, -0.0607321, 0.0607321, 0.747485, -0.286102, 187.036526)" fill="none" stroke-linejoin="miter" d="M 0.957763 1.863229 C 176.896943 97.697122 387.498952 97.698769 632.769403 1.863398 " stroke="#cb6ce6" stroke-width="4" stroke-opacity="1" stroke-miterlimit="4"/><path stroke-linecap="butt" transform="matrix(0.749948, 0, 0, 0.749948, 472.18441, 65.255887)" fill="none" stroke-linejoin="miter" d="M 0.837511 113.000016 C 322.016117 -34.999869 643.194724 -34.999869 964.378538 113.000016 " stroke="#cb6ce6" stroke-width="4" stroke-opacity="1" stroke-miterlimit="4"/><g clip-path="url(#dac0443845)"><path stroke-linecap="butt" transform="matrix(-0.745416, 0.082319, -0.082319, -0.745416, 1735.937782, 182.821073)" fill="none" stroke-linejoin="miter" d="M 1.305218 122.617647 C 187.569549 -38.207629 424.334034 -38.205045 711.599243 122.620222 " stroke="#cb6ce6" stroke-width="4" stroke-opacity="1" stroke-miterlimit="4"/></g><path stroke-linecap="butt" transform="matrix(0.749948, 0, 0, 0.749948, 31.828392, 30.008341)" fill="none" stroke-linejoin="miter" d="M 0.838244 113.001953 C 322.01685 -34.997932 643.195456 -34.997932 964.379271 113.001953 " stroke="#cb6ce6" stroke-width="4" stroke-opacity="1" stroke-miterlimit="4"/><g clip-path="url(#ddb7d31bf2)"><path stroke-linecap="butt" transform="matrix(-0.734997, 0.149, -0.149, -0.734997, 1349.046747, 132.264822)" fill="none" stroke-linejoin="miter" d="M 1.531713 180.258051 C 200.724276 -57.418283 457.42228 -57.421016 771.612411 180.263098 " stroke="#cb6ce6" stroke-width="4" stroke-opacity="1" stroke-miterlimit="4"/></g><path stroke-linecap="butt" transform="matrix(0.747485, -0.0607321, 0.0607321, 0.747485, -440.64211, 151.788979)" fill="none" stroke-linejoin="miter" d="M 0.958323 1.865218 C 176.897503 97.699111 387.499934 97.695566 632.769964 1.865387 " stroke="#cb6ce6" stroke-width="4" stroke-opacity="1" stroke-miterlimit="4"/></svg>