<svg xmlns="http://www.w3.org/2000/svg" xmlns:xlink="http://www.w3.org/1999/xlink" width="500" zoomAndPan="magnify" viewBox="0 0 375 374.999991" height="500" preserveAspectRatio="xMidYMid meet" version="1.0"><defs><clipPath id="7607cfd020"><path d="M 2.921875 2.921875 L 371.921875 2.921875 L 371.921875 371.921875 L 2.921875 371.921875 Z M 2.921875 2.921875 " clip-rule="nonzero"/></clipPath></defs><g clip-path="url(#7607cfd020)"><path fill="#330449" d="M 187.5 372.074219 C 85.722656 372.074219 2.921875 289.273438 2.921875 187.5 C 2.921875 85.722656 85.722656 2.921875 187.5 2.921875 C 289.273438 2.921875 372.074219 85.722656 372.074219 187.5 C 372.074219 289.273438 289.273438 372.074219 187.5 372.074219 Z M 187.5 37.90625 C 105.011719 37.90625 37.90625 105.011719 37.90625 187.5 C 37.90625 269.984375 105.011719 337.09375 187.5 337.09375 C 269.984375 337.09375 337.09375 269.984375 337.09375 187.5 C 337.09375 105.011719 269.984375 37.90625 187.5 37.90625 Z M 187.5 37.90625 " fill-opacity="1" fill-rule="nonzero"/></g><path fill="#330449" d="M 89.847656 187.242188 L 89.855469 188.664062 C 89.910156 200.84375 99.921875 210.765625 112.105469 210.710938 L 263.105469 210.011719 C 275.289062 209.953125 285.210938 199.941406 285.152344 187.757812 L 285.144531 186.335938 C 285.089844 174.152344 275.078125 164.234375 262.894531 164.289062 L 111.894531 164.988281 C 99.710938 165.046875 89.789062 175.058594 89.847656 187.242188 Z M 89.847656 187.242188 " fill-opacity="1" fill-rule="nonzero"/></svg>