<svg xmlns="http://www.w3.org/2000/svg" xmlns:xlink="http://www.w3.org/1999/xlink" width="500" zoomAndPan="magnify" viewBox="0 0 375 374.999991" height="500" preserveAspectRatio="xMidYMid meet" version="1.0"><defs><clipPath id="36ee519589"><path d="M 2.925781 2.925781 L 371.925781 2.925781 L 371.925781 371.925781 L 2.925781 371.925781 Z M 2.925781 2.925781 " clip-rule="nonzero"/></clipPath></defs><g clip-path="url(#36ee519589)"><path fill="#b744ed" d="M 187.496094 372.066406 C 85.722656 372.066406 2.925781 289.265625 2.925781 187.496094 C 2.925781 85.722656 85.722656 2.925781 187.496094 2.925781 C 289.265625 2.925781 372.066406 85.722656 372.066406 187.496094 C 372.066406 289.265625 289.265625 372.066406 187.496094 372.066406 Z M 187.496094 37.90625 C 105.011719 37.90625 37.90625 105.011719 37.90625 187.496094 C 37.90625 269.980469 105.011719 337.085938 187.496094 337.085938 C 269.976562 337.085938 337.085938 269.980469 337.085938 187.496094 C 337.085938 105.011719 269.976562 37.90625 187.496094 37.90625 Z M 187.496094 37.90625 " fill-opacity="1" fill-rule="nonzero"/></g><path fill="#b744ed" d="M 188.207031 285.140625 L 186.78125 285.140625 C 174.601562 285.140625 164.632812 275.175781 164.632812 262.992188 L 164.632812 111.996094 C 164.632812 99.816406 174.601562 89.847656 186.78125 89.847656 L 188.207031 89.847656 C 200.386719 89.847656 210.355469 99.816406 210.355469 111.996094 L 210.355469 262.992188 C 210.355469 275.175781 200.386719 285.140625 188.207031 285.140625 Z M 188.207031 285.140625 " fill-opacity="1" fill-rule="nonzero"/><path fill="#b744ed" d="M 89.847656 187.238281 L 89.855469 188.660156 C 89.910156 200.839844 99.921875 210.761719 112.105469 210.703125 L 263.101562 210.003906 C 275.28125 209.949219 285.203125 199.9375 285.144531 187.753906 L 285.136719 186.332031 C 285.082031 174.152344 275.070312 164.230469 262.886719 164.289062 L 111.890625 164.988281 C 99.710938 165.042969 89.789062 175.054688 89.847656 187.238281 Z M 89.847656 187.238281 " fill-opacity="1" fill-rule="nonzero"/></svg>